<svg width="31" height="30" viewBox="0 0 31 30" fill="none" xmlns="http://www.w3.org/2000/svg">
<path fill-rule="evenodd" clip-rule="evenodd" d="M0.298828 15C0.298828 6.72913 7.02796 0 15.2988 0C23.5697 0 30.2988 6.72913 30.2988 15C30.2988 23.2709 23.5697 30 15.2988 30C7.02796 30 0.298828 23.2709 0.298828 15ZM18.6997 17.5799C17.2825 18.9972 14.8142 18.9972 13.397 17.5799C12.6884 16.8713 12.2984 15.9302 12.2984 14.9286C12.2984 13.927 12.6884 12.9858 13.397 12.2772C14.8142 10.86 17.2825 10.86 18.6997 12.2772L21.3511 9.62586C18.5184 6.79138 13.5783 6.79138 10.7456 9.62586C9.32837 11.0422 8.54834 12.9254 8.54834 14.9286C8.54834 16.9317 9.32838 18.815 10.7456 20.2313C12.1619 21.6486 14.0452 22.4286 16.0483 22.4286C18.0515 22.4286 19.9347 21.6485 21.3511 20.2313L18.6997 17.5799Z" fill="#91C1F5"/>
</svg>
