<svg width="31" height="31" viewBox="0 0 31 31" fill="none" xmlns="http://www.w3.org/2000/svg">
<path d="M26.3209 5.81068L24.4841 7.54538H22.1372L26.3209 3.46375L30.4535 7.69844H28.1066L26.3209 5.81068Z" fill="#91C1F5"/>
<path d="M26.3209 10.9635L24.4841 12.8003H22.1372L26.3209 8.6676L30.4535 12.8003H28.1066L26.3209 10.9635Z" fill="#91C1F5"/>
<path d="M22.6458 15.3511C22.5437 19.4327 19.3805 22.5449 15.4009 22.5449C11.3703 22.5449 8.10495 19.3307 8.10495 15.3C8.10495 11.4225 11.3192 8.31025 14.8907 8.10617V0.300049C6.7274 0.50413 0.298828 7.1878 0.298828 15.3511C0.298828 23.6674 7.08454 30.3 15.4009 30.3C23.6152 30.3 30.3498 23.5143 30.4519 15.3511H22.6458Z" fill="#91C1F5"/>
<path d="M13.8868 17.3306H10.82V16.6665L12.2327 15.1814C12.5808 14.785 12.7549 14.4701 12.7549 14.2367C12.7549 14.0475 12.7136 13.9036 12.6311 13.805C12.5486 13.7064 12.4289 13.6571 12.2719 13.6571C12.117 13.6571 11.9912 13.7235 11.8946 13.8563C11.798 13.9871 11.7497 14.1511 11.7497 14.3483H10.7295C10.7295 14.0787 10.7969 13.8302 10.9317 13.6028C11.0666 13.3734 11.2537 13.1943 11.4932 13.0655C11.7326 12.9367 12.0003 12.8723 12.2961 12.8723C12.771 12.8723 13.1362 12.982 13.3918 13.2013C13.6493 13.4207 13.7781 13.7356 13.7781 14.1461C13.7781 14.3192 13.7459 14.4882 13.6815 14.6532C13.6171 14.8162 13.5165 14.9883 13.3797 15.1694C13.2449 15.3485 13.0265 15.5889 12.7247 15.8908L12.1572 16.5458H13.8868V17.3306Z" fill="#91C1F5"/>
<path d="M17.1018 15.6131H17.5485V16.3979H17.1018V17.3306H16.0846V16.3979H14.3852L14.3248 15.7761L16.0846 12.9448V12.9357H17.1018V15.6131ZM15.2938 15.6131H16.0846V14.2608L16.0212 14.3634L15.2938 15.6131Z" fill="#91C1F5"/>
<path d="M18.5591 15.386C18.7016 15.2036 18.8837 15.1124 19.1054 15.1124C19.3416 15.1124 19.5197 15.1835 19.6398 15.3257C19.7599 15.4679 19.8213 15.6778 19.8239 15.9555V17.3299H19.1549V15.9716C19.1549 15.8562 19.1318 15.7717 19.0856 15.7181C19.0394 15.6631 18.9609 15.6356 18.8501 15.6356C18.7128 15.6356 18.6159 15.6798 18.5591 15.7684V17.3299H17.8921V14.239H18.5591V15.386Z" fill="#91C1F5"/>
</svg>
