<svg width="27" height="28" viewBox="0 0 27 28" fill="none" xmlns="http://www.w3.org/2000/svg">
<path d="M20.0464 12.7627C19.9046 12.4495 19.5931 12.25 19.2501 12.25H15.7501V0.875C15.7501 0.392 15.3581 0 14.8751 0H11.3751C10.8921 0 10.5001 0.392 10.5001 0.875V12.25H7.00011C6.65711 12.25 6.34561 12.4512 6.20386 12.7627C6.06036 13.076 6.11636 13.4417 6.34211 13.7007L12.4671 20.7007C12.6334 20.8915 12.8731 21 13.1251 21C13.3771 21 13.6169 20.8897 13.7831 20.7007L19.9081 13.7007C20.1356 13.4435 20.1881 13.076 20.0464 12.7627Z" fill="#91C1F5"/>
<path d="M22.75 19.25V24.5H3.5V19.25H0V26.25C0 27.2177 0.784 28 1.75 28H24.5C25.4677 28 26.25 27.2177 26.25 26.25V19.25H22.75Z" fill="#91C1F5"/>
</svg>
