<svg width="27" height="22" viewBox="0 0 27 22" fill="none" xmlns="http://www.w3.org/2000/svg">
<path d="M0.298828 1C0.298828 0.447716 0.746543 0 1.29883 0H4.95603C5.50831 0 5.95603 0.447715 5.95603 1V4.6572C5.95603 5.20948 5.50831 5.6572 4.95603 5.6572H1.29883C0.746544 5.6572 0.298828 5.20948 0.298828 4.6572V1Z" fill="#91C1F5"/>
<path d="M7.84131 1C7.84131 0.447716 8.28902 0 8.84131 0H25.0701C25.6223 0 26.0701 0.447715 26.0701 1V4.6572C26.0701 5.20948 25.6223 5.6572 25.0701 5.6572H8.84131C8.28902 5.6572 7.84131 5.20948 7.84131 4.6572V1Z" fill="#91C1F5"/>
<path d="M0.298828 9.17163C0.298828 8.61935 0.746543 8.17163 1.29883 8.17163H4.95603C5.50831 8.17163 5.95603 8.61935 5.95603 9.17163V12.8288C5.95603 13.3811 5.50831 13.8288 4.95603 13.8288H1.29883C0.746544 13.8288 0.298828 13.3811 0.298828 12.8288V9.17163Z" fill="#91C1F5"/>
<path d="M7.84131 9.17163C7.84131 8.61935 8.28902 8.17163 8.84131 8.17163H25.0701C25.6223 8.17163 26.0701 8.61935 26.0701 9.17163V12.8288C26.0701 13.3811 25.6223 13.8288 25.0701 13.8288H8.84131C8.28902 13.8288 7.84131 13.3811 7.84131 12.8288V9.17163Z" fill="#91C1F5"/>
<path d="M0.298828 17.3429C0.298828 16.7906 0.746543 16.3429 1.29883 16.3429H4.95603C5.50831 16.3429 5.95603 16.7906 5.95603 17.3429V21.0001C5.95603 21.5524 5.50831 22.0001 4.95603 22.0001H1.29883C0.746544 22.0001 0.298828 21.5524 0.298828 21.0001V17.3429Z" fill="#91C1F5"/>
<path d="M7.84131 17.3429C7.84131 16.7906 8.28902 16.3429 8.84131 16.3429H25.0701C25.6223 16.3429 26.0701 16.7906 26.0701 17.3429V21.0001C26.0701 21.5524 25.6223 22.0001 25.0701 22.0001H8.84131C8.28902 22.0001 7.84131 21.5524 7.84131 21.0001V17.3429Z" fill="#91C1F5"/>
</svg>
