<svg width="662" height="405" viewBox="0 0 662 405" fill="none" xmlns="http://www.w3.org/2000/svg">
<path d="M472.8 301.174H131.8C127.9 301.174 124.6 297.973 124.6 293.972V9.90197C124.6 6.00101 127.8 2.7002 131.8 2.7002H472.8C476.7 2.7002 480 5.90098 480 9.90197V293.972C480 297.973 476.8 301.174 472.8 301.174Z" fill="#D2E2FE"/>
<path d="M124.7 38.71H480" stroke="#FEFEF4" stroke-width="1.9411" stroke-miterlimit="10"/>
<path d="M472.8 301.174H131.8C127.9 301.174 124.6 297.973 124.6 293.972V9.90197C124.6 6.00101 127.8 2.7002 131.8 2.7002H472.8C476.7 2.7002 480 5.90098 480 9.90197V293.972C480 297.973 476.8 301.174 472.8 301.174Z" stroke="#FEFEF4" stroke-width="1.9411" stroke-miterlimit="10"/>
<path d="M154.7 26.107C157.461 26.107 159.7 23.8678 159.7 21.1057C159.7 18.3436 157.461 16.1045 154.7 16.1045C151.939 16.1045 149.7 18.3436 149.7 21.1057C149.7 23.8678 151.939 26.107 154.7 26.107Z" stroke="#FEFEF4" stroke-width="1.9411" stroke-miterlimit="10"/>
<path d="M174.2 26.107C176.961 26.107 179.2 23.8678 179.2 21.1057C179.2 18.3436 176.961 16.1045 174.2 16.1045C171.439 16.1045 169.2 18.3436 169.2 21.1057C169.2 23.8678 171.439 26.107 174.2 26.107Z" stroke="#FEFEF4" stroke-width="1.9411" stroke-miterlimit="10"/>
<path d="M193.6 26.107C196.361 26.107 198.6 23.8678 198.6 21.1057C198.6 18.3436 196.361 16.1045 193.6 16.1045C190.839 16.1045 188.6 18.3436 188.6 21.1057C188.6 23.8678 190.839 26.107 193.6 26.107Z" stroke="#FEFEF4" stroke-width="1.9411" stroke-miterlimit="10"/>
<path d="M171.872 91.0127H165.28L152.448 69.9629V91.0127H145.856V59.0205H152.448L165.302 80.1143V59.0205H171.872V91.0127ZM176.337 78.9058C176.337 76.5474 176.791 74.4453 177.699 72.5996C178.607 70.7539 179.911 69.3257 181.61 68.3149C183.324 67.3042 185.309 66.7988 187.565 66.7988C190.773 66.7988 193.388 67.7803 195.409 69.7432C197.445 71.7061 198.58 74.3721 198.815 77.7412L198.859 79.3672C198.859 83.0146 197.841 85.9443 195.805 88.1562C193.768 90.3535 191.036 91.4521 187.609 91.4521C184.181 91.4521 181.442 90.3535 179.391 88.1562C177.355 85.959 176.337 82.9707 176.337 79.1914V78.9058ZM182.687 79.3672C182.687 81.623 183.112 83.3516 183.961 84.5527C184.811 85.7393 186.027 86.3325 187.609 86.3325C189.147 86.3325 190.348 85.7466 191.212 84.5747C192.076 83.3882 192.509 81.4985 192.509 78.9058C192.509 76.6938 192.076 74.98 191.212 73.7642C190.348 72.5483 189.132 71.9404 187.565 71.9404C186.012 71.9404 184.811 72.5483 183.961 73.7642C183.112 74.9653 182.687 76.833 182.687 79.3672ZM210.486 61.3936V67.2383H214.551V71.8965H210.486V83.7617C210.486 84.6406 210.655 85.2705 210.992 85.6514C211.329 86.0322 211.973 86.2227 212.925 86.2227C213.629 86.2227 214.251 86.1714 214.793 86.0688V90.8809C213.548 91.2617 212.266 91.4521 210.948 91.4521C206.495 91.4521 204.224 89.2036 204.136 84.7065V71.8965H200.665V67.2383H204.136V61.3936H210.486ZM165.104 122.939H152.448V136.013H145.856V104.021H166.687V109.36H152.448V117.622H165.104V122.939ZM168.734 123.906C168.734 121.547 169.188 119.445 170.097 117.6C171.005 115.754 172.308 114.326 174.008 113.315C175.722 112.304 177.706 111.799 179.962 111.799C183.17 111.799 185.785 112.78 187.806 114.743C189.843 116.706 190.978 119.372 191.212 122.741L191.256 124.367C191.256 128.015 190.238 130.944 188.202 133.156C186.166 135.354 183.434 136.452 180.006 136.452C176.578 136.452 173.839 135.354 171.788 133.156C169.752 130.959 168.734 127.971 168.734 124.191V123.906ZM175.084 124.367C175.084 126.623 175.509 128.352 176.359 129.553C177.208 130.739 178.424 131.333 180.006 131.333C181.544 131.333 182.745 130.747 183.61 129.575C184.474 128.388 184.906 126.499 184.906 123.906C184.906 121.694 184.474 119.98 183.61 118.764C182.745 117.548 181.53 116.94 179.962 116.94C178.409 116.94 177.208 117.548 176.359 118.764C175.509 119.965 175.084 121.833 175.084 124.367ZM209.52 133.596C207.952 135.5 205.784 136.452 203.016 136.452C200.467 136.452 198.519 135.72 197.171 134.255C195.838 132.79 195.157 130.644 195.128 127.817V112.238H201.478V127.597C201.478 130.073 202.606 131.311 204.861 131.311C207.015 131.311 208.494 130.563 209.3 129.069V112.238H215.672V136.013H209.695L209.52 133.596ZM226.421 112.238L226.619 114.985C228.318 112.861 230.596 111.799 233.452 111.799C235.972 111.799 237.847 112.539 239.077 114.018C240.308 115.498 240.937 117.709 240.967 120.654V136.013H234.617V120.808C234.617 119.46 234.324 118.486 233.738 117.885C233.152 117.27 232.178 116.962 230.815 116.962C229.028 116.962 227.688 117.724 226.794 119.248V136.013H220.444V112.238H226.421ZM244.926 123.95C244.926 120.244 245.754 117.292 247.409 115.095C249.079 112.897 251.357 111.799 254.242 111.799C256.557 111.799 258.469 112.663 259.977 114.392V102.263H266.349V136.013H260.615L260.307 133.486C258.725 135.463 256.689 136.452 254.199 136.452C251.401 136.452 249.152 135.354 247.453 133.156C245.768 130.944 244.926 127.875 244.926 123.95ZM251.276 124.411C251.276 126.638 251.664 128.344 252.441 129.531C253.217 130.717 254.345 131.311 255.825 131.311C257.787 131.311 259.172 130.483 259.977 128.828V119.445C259.186 117.79 257.817 116.962 255.868 116.962C252.807 116.962 251.276 119.445 251.276 124.411Z" fill="#699EFC"/>
<g clip-path="url(#clip0)">
<path d="M203.711 382.094H18.2887C10.3749 382.094 4 375.716 4 367.798V229.349C4 221.431 10.3749 215.053 18.2887 215.053H203.601C211.515 215.053 217.89 221.431 217.89 229.349V367.688C218 375.716 211.625 382.094 203.711 382.094Z" fill="#1E6DFB"/>
<path d="M26.2024 234.847C28.4484 234.847 30.2691 233.025 30.2691 230.778C30.2691 228.531 28.4484 226.709 26.2024 226.709C23.9563 226.709 22.1356 228.531 22.1356 230.778C22.1356 233.025 23.9563 234.847 26.2024 234.847Z" stroke="#FEFEF4" stroke-width="1.4304" stroke-miterlimit="10"/>
<path d="M41.9199 234.847C44.1659 234.847 45.9867 233.025 45.9867 230.778C45.9867 228.531 44.1659 226.709 41.9199 226.709C39.6739 226.709 37.8531 228.531 37.8531 230.778C37.8531 233.025 39.6739 234.847 41.9199 234.847Z" stroke="#FEFEF4" stroke-width="1.4304" stroke-miterlimit="10"/>
<path d="M57.6374 234.847C59.8834 234.847 61.7042 233.025 61.7042 230.778C61.7042 228.531 59.8834 226.709 57.6374 226.709C55.3914 226.709 53.5706 228.531 53.5706 230.778C53.5706 233.025 55.3914 234.847 57.6374 234.847Z" stroke="#FEFEF4" stroke-width="1.4304" stroke-miterlimit="10"/>
<path d="M4 247.713H218" stroke="#FEFEF4" stroke-width="1.4304" stroke-miterlimit="10"/>
<path d="M84.5118 310.088H89.8292V317.599H84.5118V327.753H75.1983V317.599H55.9591L55.5401 311.732L75.1017 280.819H84.5118V310.088ZM64.8214 310.088H75.1983V293.52L74.586 294.584L64.8214 310.088Z" fill="#F9F9F9"/>
<path d="M126.439 308.348C126.439 314.838 125.096 319.802 122.41 323.24C119.725 326.678 115.793 328.398 110.615 328.398C105.502 328.398 101.592 326.711 98.8849 323.337C96.1778 319.963 94.7921 315.128 94.7276 308.831V300.192C94.7276 293.638 96.0811 288.663 98.7882 285.268C101.517 281.872 105.438 280.175 110.551 280.175C115.664 280.175 119.574 281.862 122.281 285.236C124.988 288.588 126.374 293.412 126.439 299.709V308.348ZM117.125 298.871C117.125 294.981 116.588 292.155 115.514 290.393C114.461 288.61 112.807 287.718 110.551 287.718C108.359 287.718 106.737 288.567 105.685 290.264C104.653 291.94 104.106 294.573 104.041 298.162V309.573C104.041 313.398 104.557 316.245 105.588 318.115C106.641 319.963 108.316 320.887 110.615 320.887C112.893 320.887 114.536 319.995 115.546 318.212C116.556 316.428 117.082 313.699 117.125 310.024V298.871Z" fill="#F9F9F9"/>
<path d="M160.309 310.088H165.626V317.599H160.309V327.753H150.995V317.599H131.756L131.337 311.732L150.899 280.819H160.309V310.088ZM140.618 310.088H150.995V293.52L150.383 294.584L140.618 310.088Z" fill="#F9F9F9"/>
</g>
<g clip-path="url(#clip1)">
<path d="M648.284 111.004H515.643C511.38 111.004 508 106.12 508 100.069V29.045C508 22.8875 511.38 18.0039 515.643 18.0039H648.357C652.546 18.0039 656 22.8875 656 29.045V100.069C655.927 106.12 652.473 111.004 648.284 111.004Z" fill="#D2E2FE"/>
<path d="M529.697 32.5173C529.697 34.3872 528.185 35.9009 526.318 35.9009C524.451 35.9009 522.939 34.3872 522.939 32.5173C522.939 30.6475 524.451 29.1338 526.318 29.1338C528.185 29.1338 529.697 30.6475 529.697 32.5173Z" stroke="#FEFEF4" stroke-width="1.4768" stroke-miterlimit="10"/>
<path d="M539.478 35.9009C541.345 35.9009 542.857 34.386 542.857 32.5173C542.857 30.6487 541.345 29.1338 539.478 29.1338C537.612 29.1338 536.099 30.6487 536.099 32.5173C536.099 34.386 537.612 35.9009 539.478 35.9009Z" stroke="#FEFEF4" stroke-width="1.4768" stroke-miterlimit="10"/>
<path d="M552.639 35.9009C554.505 35.9009 556.018 34.386 556.018 32.5173C556.018 30.6487 554.505 29.1338 552.639 29.1338C550.773 29.1338 549.26 30.6487 549.26 32.5173C549.26 34.386 550.773 35.9009 552.639 35.9009Z" stroke="#FEFEF4" stroke-width="1.4768" stroke-miterlimit="10"/>
<path d="M508 45.0039H656" stroke="#FEFEF4" stroke-width="1.4768" stroke-miterlimit="10"/>
</g>
<g clip-path="url(#clip2)">
<path d="M461.1 289.672L460.4 279.67L397.9 282.771V292.473C397.9 292.473 383.8 305.876 378.3 394.898H490.9C490.8 394.798 503.1 315.979 461.1 289.672Z" fill="#1E6DFB"/>
<path d="M397.8 292.373L461.1 289.673" stroke="black" stroke-width="1.5516" stroke-miterlimit="10"/>
<path d="M410.7 333.483L423.7 338.685L430.6 394.799" stroke="black" stroke-width="1.5516" stroke-miterlimit="10"/>
<path d="M329.4 270.268L346.7 213.254L384.7 227.457L366.5 282.071C362.8 293.374 349.9 298.675 339.3 293.274C330.8 289.073 326.6 279.27 329.4 270.268Z" fill="#F26E5A"/>
<path d="M356.1 182.746C359.5 171.643 371.5 165.542 382.5 169.343C393.2 173.043 399 184.646 395.4 195.349L384.8 227.557L346.8 213.353L356.1 182.746Z" fill="#FEFEF4"/>
<path d="M358.8 265.966L315.4 183.646C315.4 183.646 316.4 168.742 291.7 167.842C291.4 167.842 291 167.842 290.7 167.842H282.4C280.9 167.842 279.5 168.942 279.3 170.442C279.1 172.243 280.3 173.743 281.9 173.943L290.2 175.144L278.9 178.144L276.8 178.945L261.3 168.742C260.1 167.842 258.4 168.242 257.6 169.642C257 170.642 257.3 171.943 258.2 172.743C259.2 173.543 260.7 174.844 262.4 176.344L259 174.343C257.7 173.543 256 174.143 255.4 175.444C254.9 176.544 255.3 177.844 256.2 178.444C257 179.045 258.1 179.745 259.2 180.545L258.2 180.045C256.9 179.545 255.4 179.945 254.6 181.045C253.5 182.645 254.2 184.746 255.9 185.446L272.8 192.548C275.7 193.748 278.5 194.548 281.9 193.748L296.9 190.247L330.5 284.371L358.8 265.966Z" fill="#F26E5A"/>
<path d="M340.9 232.157L349 247.361" stroke="#DB5749" stroke-width="1.5" stroke-miterlimit="10"/>
<path d="M389.9 168.342L373.8 169.542C373.8 169.542 350.4 201.25 397.9 282.67L460.4 279.569L465.1 191.848L457.4 166.941H429.4L389.9 168.342Z" fill="#FEFEF4"/>
<path d="M371.5 222.555C371.5 222.555 366.8 212.752 369.8 191.047" stroke="#FCE7E4" stroke-width="1.5516" stroke-miterlimit="10"/>
<path d="M516.7 258.765L490.7 205.151L455.4 225.156L481.9 276.269C487.4 286.872 500.9 290.072 510.6 283.171C518.3 277.569 520.9 267.267 516.7 258.765Z" fill="#F26E5A"/>
<path d="M476.7 176.544C471.6 166.142 458.8 161.941 448.6 167.342C438.6 172.643 434.7 184.946 439.9 195.049L455.4 225.156L490.7 205.151L476.7 176.544Z" fill="#FEFEF4"/>
<path d="M455.4 225.156L442.6 200.25" stroke="#FCE7E4" stroke-width="1.5516" stroke-miterlimit="10"/>
<path d="M571 167.042C570.2 165.941 568.7 165.541 567.4 166.041L559.9 168.942L567 162.941C568.2 161.94 568.5 160.24 567.6 158.94C566.6 157.539 564.6 157.239 563.3 158.34L556.7 163.641L562.3 156.339C563.2 155.139 563.2 153.338 562 152.338C560.7 151.138 558.7 151.338 557.7 152.638L546.6 164.041L535.3 161.04L543.6 159.84C545.3 159.64 546.5 158.139 546.2 156.339C546 154.839 544.6 153.738 543.1 153.738H534.8C529.9 153.738 525.2 155.439 521.6 158.64C521.5 158.64 521.5 158.74 521.4 158.74C516.3 162.741 518.2 170.943 518.2 170.943L487.1 259.064L517.9 272.768L535.7 178.144H547.1C547.8 178.244 548.5 178.244 549.2 178.144H549.3C550.5 178.044 551.7 177.744 552.9 177.244L569.8 171.243C571.4 170.643 572 168.542 571 167.042Z" fill="#F26E5A"/>
<path d="M499.2 222.556L492.5 245.961" stroke="#DB5749" stroke-width="1.5" stroke-miterlimit="10"/>
<path d="M388.6 95.7239C386.7 97.0242 373.6 100.425 373.4 102.826C373.4 102.826 377.7 119.63 373.3 122.731C361.4 131.233 357.6 147.737 357.6 147.737C357.6 147.737 388.9 171.243 472.2 146.536C472.2 146.536 473.2 136.534 458 129.332C453.7 127.232 449.8 124.131 447.4 119.93C445.5 116.629 445.2 115.229 444.7 112.328C443.4 104.126 420.7 73.6184 388.6 95.7239Z" fill="black"/>
<path d="M389.8 120.831C390.2 126.332 386 131.133 380.5 131.533C375 131.933 370.2 127.732 369.8 122.231C369.4 116.73 373.6 111.928 379.1 111.528C384.7 111.128 389.5 115.329 389.8 120.831Z" fill="#DB5749"/>
<path d="M394.4 145.336L395.8 167.042C396.3 174.644 399.4 179.845 406.9 179.345C413.3 178.945 420.9 173.743 421.3 167.342L417.5 133.233L394.4 145.336Z" fill="#F26E5A"/>
<path d="M389.9 168.342L429.3 166.941C429.3 166.941 428.3 186.346 404.9 184.546C388.6 183.345 389.9 168.342 389.9 168.342Z" fill="#F26E5A"/>
<path d="M395.5 163.241L420.7 138.535L394.2 143.036L395.5 163.241Z" fill="#DB5749"/>
<path d="M401 148.837C388.2 148.837 377.6 138.734 377.2 128.232L376.4 103.526C375.9 90.4225 385.9 79.2197 399.1 78.3195C412.5 77.4193 426.5 87.3217 427.5 100.825L427.9 120.73C428.1 136.034 416.3 147.737 401 148.837Z" fill="#F26E5A"/>
<path d="M390.6 119.529L389.9 125.731L393 125.831" stroke="black" stroke-width="1.2385" stroke-miterlimit="10" stroke-linecap="round" stroke-linejoin="round"/>
<path d="M403.3 104.526C403.3 104.526 396.2 103.926 396.1 106.827C396.1 106.827 396.1 108.827 402.3 109.127C408.5 109.527 410.1 109.027 410.7 107.227C411.2 105.426 406.6 104.526 403.3 104.526Z" fill="black"/>
<path d="M382.7 108.727C382.7 108.727 388.1 108.327 388.6 110.928C388.6 110.928 388.9 112.728 384.2 112.928C379.5 113.228 378 112.628 378 111.128C377.8 109.427 380.2 108.727 382.7 108.727Z" fill="black"/>
<path d="M385.8 117.229C385.8 118.529 384.9 119.529 383.6 119.529C382.3 119.529 381.3 118.629 381.3 117.329C381.3 116.029 382.2 115.028 383.5 115.028C384.8 114.928 385.8 115.929 385.8 117.229Z" fill="black"/>
<path d="M404.9 116.629C404.9 117.93 404 118.93 402.7 118.93C401.4 118.93 400.4 118.03 400.4 116.729C400.4 115.429 401.3 114.429 402.6 114.429C403.8 114.329 404.9 115.329 404.9 116.629Z" fill="black"/>
<path d="M398.3 130.032C398.3 130.032 394.9 128.532 390.9 132.032" stroke="black" stroke-width="1.2385" stroke-miterlimit="10" stroke-linecap="round" stroke-linejoin="round"/>
<path d="M407 74.0188C403.8 73.8187 400.6 74.2188 397.5 75.019C389.8 77.0195 376 82.7209 373.6 97.5246C372.8 101.426 373.4 102.726 373.4 102.726C373.4 102.726 399.2 103.726 414.4 96.5243C416.6 105.827 418.6 111.528 427.8 120.63L435.9 108.427L445.1 116.629C445.2 116.929 445.2 76.1193 407 74.0188Z" fill="black"/>
<path d="M441.2 120.93C441.6 126.432 437.4 131.233 431.9 131.633C426.4 132.033 421.6 127.832 421.2 122.331C420.8 116.829 425 112.028 430.5 111.628C436 111.228 440.8 115.429 441.2 120.93Z" fill="#F26E5A"/>
<path d="M427.4 124.431C427.4 124.431 426.9 117.229 433.9 117.829" stroke="black" stroke-width="1.2385" stroke-miterlimit="10" stroke-linecap="round" stroke-linejoin="round"/>
</g>
<g clip-path="url(#clip3)">
<path d="M60.7 87.7216H14.1C6.3 87.7216 0 81.42 0 73.6181V34.1084C0 26.3064 6.3 20.0049 14.1 20.0049H60.7C68.5 20.0049 74.8 26.3064 74.8 34.1084V73.6181C74.8 81.42 68.5 87.7216 60.7 87.7216Z" fill="#1E6DFB"/>
<path d="M37.4 68.517C28.7 68.517 21.6 61.4152 21.6 52.7131C21.6 44.0109 28.7 36.9092 37.4 36.9092C46.1 36.9092 53.2 44.0109 53.2 52.7131C53.3 61.4152 46.1 68.517 37.4 68.517ZM37.4 41.5103C31.3 41.5103 26.3 46.5115 26.3 52.6131C26.3 58.7146 31.3 63.7158 37.4 63.7158C43.5 63.7158 48.5 58.7146 48.5 52.6131C48.5 46.5115 43.5 41.5103 37.4 41.5103Z" fill="#FEFEF4"/>
<path d="M46.8 41.5107L28.6 63.7162" stroke="#FEFEF4" stroke-width="4.522" stroke-miterlimit="10"/>
</g>
<defs>
<clipPath id="clip0">
<rect width="214" height="167.041" fill="white" transform="translate(4 215.053)"/>
</clipPath>
<clipPath id="clip1">
<rect width="148" height="93.023" fill="white" transform="translate(508 18.0039)"/>
</clipPath>
<clipPath id="clip2">
<rect width="317.5" height="320.879" fill="white" transform="translate(254 74.0186)"/>
</clipPath>
<clipPath id="clip3">
<rect width="74.8" height="67.7167" fill="white" transform="translate(0 20.0049)"/>
</clipPath>
</defs>
</svg>
