<svg width="167" height="260" viewBox="0 0 167 260" fill="none" xmlns="http://www.w3.org/2000/svg">
<path d="M31.7149 100.847H135.285V92.9236L151.132 85H15.8677L31.7149 92.9236V100.847Z" fill="url(#paint0_linear)"/>
<path d="M115 74C115 87.1533 116.111 97.307 110.333 104.009C104.603 110.67 95.8625 114 84.1102 114C72.5537 114 63.8374 110.754 57.9612 104.261C52.134 97.7259 52.1469 89.2014 52 76.4251V61.5C52 48.3467 52.2319 41.0766 57.9612 34.5C63.7394 27.9234 74.6987 24 86.5 24C98.2034 24 99.7707 28.0909 105.5 34.5C111.278 40.9091 114.853 44.3587 115 57.135V74ZM101.151 57.135C101.151 48.5477 99.78 42.2643 97.0378 38.2848C94.2956 34.2634 89.9374 32.2527 83.9633 32.2527C78.1361 32.2527 73.8513 34.1586 71.1091 37.9706C68.3669 41.7406 66.9224 47.6471 66.7754 55.6898V76.4251C66.7754 84.9706 68.171 91.3378 70.9622 95.5267C73.7534 99.7157 78.1361 101.81 84.1102 101.81C89.8395 101.81 94.0752 99.8832 96.8174 96.0294C99.5596 92.1337 101.004 86.0597 101.151 77.8075V57.135Z" fill="#0551DA"/>
<path d="M118.863 83.1025C118.863 98.4346 115.982 110.007 110.221 117.819C104.508 125.583 95.792 129.465 84.0732 129.465C72.5498 129.465 63.8584 125.681 57.999 118.112C52.1885 110.495 49.21 99.2402 49.0635 84.3477V65.8906C49.0635 50.5586 51.9199 39.0596 57.6328 31.3936C63.3945 23.7275 72.1592 19.8945 83.9268 19.8945C95.5967 19.8945 104.288 23.6299 110.001 31.1006C115.763 38.5713 118.717 49.7529 118.863 64.6455V83.1025ZM101.065 63.1807C101.065 53.1709 99.6982 45.8467 96.9639 41.208C94.2295 36.5205 89.8838 34.1768 83.9268 34.1768C78.1162 34.1768 73.8438 36.3984 71.1094 40.8418C68.375 45.2363 66.9346 52.1211 66.7881 61.4961V85.666C66.7881 95.627 68.1797 103.049 70.9629 107.932C73.7461 112.814 78.1162 115.256 84.0732 115.256C89.7861 115.256 94.0098 113.01 96.7441 108.518C99.4785 103.977 100.919 96.8965 101.065 87.2773V63.1807Z" fill="black"/>
<path d="M166.105 248.313L158.395 100.847H135.285H31.7148H8.60474L0.89437 248.313C0.562186 254.666 5.62434 260 11.9864 260H155.013C161.375 260 166.438 254.666 166.105 248.313Z" fill="url(#paint1_linear)"/>
<path d="M31.7151 92.9236L15.8678 85L15.2266 98.5772L31.7151 92.9236Z" fill="#0551DA"/>
<path d="M31.7151 100.847V92.9238L15.2266 98.5774L8.60498 100.847H31.7151Z" fill="#1E6DFB"/>
<path d="M151.774 98.5772L151.132 85L135.285 92.9236L151.774 98.5772Z" fill="#0551DA"/>
<path d="M135.285 92.9238V100.847H158.395L151.774 98.5774L135.285 92.9238Z" fill="#1E6DFB"/>
<path d="M43.0229 128.222V124.309H49.3864V128.221C50.5264 127.292 51.2695 125.894 51.2695 124.309C51.2695 121.511 49.0015 119.243 46.2034 119.243C43.4057 119.243 41.1377 121.511 41.1377 124.309C41.1377 125.895 41.8818 127.293 43.0229 128.222Z" fill="#0551DA"/>
<path d="M123.979 124.309V128.221C125.119 127.292 125.862 125.894 125.862 124.309C125.862 121.511 123.594 119.243 120.797 119.243C117.998 119.243 115.73 121.511 115.73 124.309C115.73 125.895 116.474 127.293 117.615 128.222V124.309H123.979Z" fill="#0551DA"/>
<path d="M43.0229 128.223V124.309H49.3868V128.221V159.791H43.0229V128.223Z" fill="white"/>
<path d="M123.979 128.222V159.791H117.616V128.222V124.309H123.979V128.222Z" fill="white"/>
<line x1="59.9242" y1="11.8677" x2="57.7883" y2="2.09847" stroke="#BEC6D2" stroke-width="3" stroke-linecap="round" stroke-linejoin="round"/>
<line x1="49.6943" y1="21.5055" x2="39.827" y2="19.8816" stroke="#BEC6D2" stroke-width="3" stroke-linecap="round" stroke-linejoin="round"/>
<line x1="49.848" y1="10.8962" x2="53.0487" y2="14.7374" stroke="#BEC6D2" stroke-width="3" stroke-linecap="round" stroke-linejoin="round"/>
<path d="M57 200.81C64.6667 191.143 85.8 177.61 109 200.81" stroke="white" stroke-width="4"/>
<defs>
<linearGradient id="paint0_linear" x1="10.4571" y1="84.3067" x2="14.1679" y2="123.884" gradientUnits="userSpaceOnUse">
<stop stop-color="#1FA2FF"/>
<stop offset="1" stop-color="#274FDB"/>
</linearGradient>
<linearGradient id="paint1_linear" x1="-5.73077" y1="93.8842" x2="188.146" y2="345.41" gradientUnits="userSpaceOnUse">
<stop stop-color="#1FA2FF"/>
<stop offset="1" stop-color="#274FDB"/>
</linearGradient>
</defs>
</svg>
