<svg width="98" height="20" viewBox="0 0 98 20" fill="none" xmlns="http://www.w3.org/2000/svg">
<path fill-rule="evenodd" clip-rule="evenodd" d="M15.0195 16.5776V3.7709H18.4689V5.71701L18.6713 5.44494C19.5638 4.24571 21.0693 3.60141 23.03 3.57764V6.83479L22.9903 6.83171C22.7424 6.81212 22.5281 6.79539 22.2791 6.79539C19.9334 6.79539 18.6415 8.12427 18.6415 10.5375V16.5776H15.0195Z" fill="#C1C4D6"/>
<path fill-rule="evenodd" clip-rule="evenodd" d="M30.3296 6.24254C28.2881 6.24254 26.9741 7.62436 26.9006 9.84904L26.8959 9.98873L33.5901 8.69121L33.5584 8.57576C33.1641 7.13654 31.9269 6.24254 30.3296 6.24254ZM30.7964 16.911C26.4201 16.911 23.3638 14.1696 23.3638 10.2443C23.3638 6.38133 26.2932 3.57764 30.3295 3.57764C34.2323 3.57764 36.9828 6.22606 37.0483 10.0303L27.2226 11.9233L27.278 12.0503C27.8553 13.3748 29.1059 14.0748 30.8947 14.0748C32.2456 14.0748 33.2719 13.6958 34.2061 12.8485L36.101 14.8947C34.8804 16.2327 33.0961 16.911 30.7964 16.911Z" fill="#C1C4D6"/>
<path fill-rule="evenodd" clip-rule="evenodd" d="M56.4821 16.5776V9.81141C56.4821 7.75755 55.5559 6.6264 53.874 6.6264C51.9522 6.6264 50.8497 7.91075 50.8497 10.1504V16.5776H47.2536V9.81141C47.2536 7.17888 45.8354 6.6264 44.6455 6.6264C42.739 6.6264 41.6457 7.91075 41.6457 10.1504V16.5776H38.0496V3.77155H41.4744V5.45695L41.6695 5.23486C42.6091 4.16621 44.0484 3.57764 45.7226 3.57764C47.5827 3.57764 49.0882 4.31655 49.9618 5.65791L50.0466 5.78822L50.143 5.66627C51.1922 4.339 52.8911 3.57764 54.8042 3.57764C58.156 3.57764 60.0783 5.63788 60.0783 9.23032V16.5776H56.4821Z" fill="#C1C4D6"/>
<path fill-rule="evenodd" clip-rule="evenodd" d="M68.4954 6.48756C66.4238 6.48756 65.0317 7.99752 65.0317 10.2447C65.0317 12.492 66.4238 14.0018 68.4954 14.0018C70.5204 14.0018 71.9348 12.4569 71.9348 10.2447C71.9348 8.03244 70.5204 6.48756 68.4954 6.48756ZM67.6352 17.0594C63.8518 17.0594 61.2092 14.318 61.2092 10.3927C61.2092 6.46748 63.8518 3.72607 67.6352 3.72607C69.2462 3.72607 70.5705 4.26306 71.4647 5.27918L71.6578 5.49851V3.92183H75.2275V16.8637H71.8281V15.1497L71.6326 15.3868C70.7181 16.4968 69.373 17.0594 67.6352 17.0594Z" fill="#C1C4D6"/>
<path fill-rule="evenodd" clip-rule="evenodd" d="M82.3352 16.911C80.2717 16.911 78.0519 16.3713 76.7668 15.5621L77.947 13.024C79.1608 13.7689 80.924 14.2461 82.4822 14.2461C84.1898 14.2461 85.0199 13.8174 85.0199 12.9359C85.0199 11.9996 83.7286 11.811 82.2334 11.5925C79.9261 11.2555 77.0549 10.8362 77.0549 7.72401C77.0549 5.20504 79.4065 3.57764 83.0459 3.57764C84.874 3.57764 86.7922 4.00139 87.9746 4.66205L86.7945 7.17746C85.6558 6.55706 84.3954 6.24252 83.0459 6.24252C80.7335 6.24252 80.4838 7.1759 80.4838 7.57719C80.4838 8.5664 81.8116 8.77305 83.3489 9.01241C85.6212 9.36587 88.4487 9.80609 88.4487 12.838C88.4487 15.3123 86.049 16.911 82.3352 16.911" fill="#C1C4D6"/>
<path d="M94.177 16.9111C95.321 16.9111 96.371 16.6339 97.0775 16.1505L96.1697 13.6801C95.741 13.9573 95.2182 14.1081 94.6823 14.1081C93.6039 14.1081 92.9848 13.4361 92.9848 12.2653V9.73719H92.9826V0.911133H89.45V12.314C89.45 15.3211 91.0861 16.9111 94.177 16.9111Z" fill="#C1C4D6"/>
<path d="M97.7942 4.10667H93.658V6.81215H95.784L97.7942 4.10667Z" fill="#C1C4D6"/>
<path fill-rule="evenodd" clip-rule="evenodd" d="M11.0559 3.91113H5.47285C2.46356 3.91113 0 6.35352 0 9.33486V17.2146V19.9111H3.59979L5.71559 17.2146H3.60495V9.94716C3.60495 8.57588 4.73774 7.45361 6.1236 7.45361H8.69045C9.27062 7.45361 9.74577 7.92605 9.74577 8.49913V11.0831C9.74577 12.4032 8.6543 13.4828 7.32353 13.4828H6.48169V17.0253H8.08274C10.9819 17.0253 13.3507 14.675 13.3507 11.8045V6.18637C13.3507 4.93618 12.3178 3.91113 11.0559 3.91113" fill="#C1C4D6"/>
</svg>
